<?xml version="1.0" encoding="UTF-8" standalone="no"?>
<svg width="285px" height="170px" viewBox="0 0 285 170" version="1.1" xmlns="http://www.w3.org/2000/svg" xmlns:xlink="http://www.w3.org/1999/xlink">
    <!-- Generator: Sketch 41 (35326) - http://www.bohemiancoding.com/sketch -->
    <title>Grafik Einfach flexibel</title>
    <desc>Created with Sketch.</desc>
    <defs>
        <rect id="path-1" x="0.375455188" y="0.47204113" width="171.735557" height="106.769966"></rect>
        <polygon id="path-3" points="120.009048 7.0969064 120.009048 80.4846891 7.72273667 80.4846891 7.72273667 7.0969064"></polygon>
    </defs>
    <g id="Start" stroke="none" stroke-width="1" fill="none" fill-rule="evenodd">
        <g transform="translate(-573.000000, -1054.000000)" id="Ein-Login-für-alle-Telekom-Dienste-02">
            <g transform="translate(60.000000, 686.000000)">
                <g id="Einfach-flexibel" transform="translate(460.000000, 368.000000)">
                    <g id="Grafik-Einfach-flexibel" transform="translate(53.000000, 0.000000)">
                        <g id="Desktop" transform="translate(63.772225, 0.000000)">
                            <rect id="Rectangle-path" fill="#3C3C3C" x="79.4303548" y="119.830258" width="31.8843223" height="22.5296962"></rect>
                            <rect id="Rectangle-path" fill="#262626" opacity="0.4" x="79.4303548" y="119.830258" width="31.8843223" height="22.5296962"></rect>
                            <path d="M6.42625129,0 C3.347765,0 0.0493868338,3.13370969 0.0493868338,6.49125578 L0.0493868338,119.752477 C0.0493868338,122.886187 3.12787312,126.243733 6.42625129,126.243733 L184.538672,126.243733 C187.617159,126.243733 190.915537,123.110023 190.915537,119.752477 L190.915537,6.49125578 C190.915537,3.3575461 187.837051,0 184.538672,0 L6.42625129,0 L6.42625129,0 Z" id="Shape" fill="#4B4B4B"></path>
                            <path d="M50.8444106,148.85121 L50.8444106,142.359954 C50.8444106,140.345427 52.3836538,139.226245 53.9228969,139.226245 L136.602243,139.226245 C138.141486,139.226245 139.680729,140.569263 139.680729,142.359954 L139.680729,148.85121 L50.8444106,148.85121 L50.8444106,148.85121 Z" id="Shape" fill="#4B4B4B"></path>
                            <g id="Screen" transform="translate(9.129282, 9.152924)">
                                <mask id="mask-2" fill="white">
                                    <use xlink:href="#path-1"></use>
                                </mask>
                                <use fill="#FFFFFF" xlink:href="#path-1"></use>
                                <rect id="Rectangle-131" fill="#D0D0D0" mask="url(#mask-2)" x="51.9666844" y="93.6414567" width="4.21351495" height="4.22442662"></rect>
                                <rect id="Rectangle-131" fill="#A4A4A4" mask="url(#mask-2)" x="59.6914618" y="85.591511" width="67.4162392" height="4.62604714"></rect>
                                <rect id="Rectangle-131" fill="#A4A4A4" mask="url(#mask-2)" x="59.6914618" y="96.4338092" width="67.4162392" height="4.62604714"></rect>
                                <rect id="Rectangle-131" fill="#D0D0D0" mask="url(#mask-2)" x="51.9666844" y="83.0803902" width="4.21351495" height="4.22442662"></rect>
                                <rect id="Rectangle-131" fill="#A4A4A4" mask="url(#mask-2)" x="59.6914618" y="73.9713621" width="74.4387642" height="4.62604714"></rect>
                                <rect id="Rectangle-131" fill="#D0D0D0" mask="url(#mask-2)" x="51.9666844" y="72.5193236" width="4.21351495" height="4.22442662"></rect>
                                <rect id="Rectangle-131" fill="#A4A4A4" mask="url(#mask-2)" x="59.6914618" y="62.5267139" width="53.3711894" height="4.62604714"></rect>
                                <rect id="Rectangle-131" fill="#D0D0D0" mask="url(#mask-2)" x="51.9666844" y="61.254186" width="4.21351495" height="4.22442662"></rect>
                                <rect id="Rectangle-131" fill="#A4A4A4" mask="url(#mask-2)" x="59.6914618" y="52.1012616" width="60.3937143" height="4.62604714"></rect>
                                <rect id="Rectangle-131" fill="#D0D0D0" mask="url(#mask-2)" x="51.9666844" y="51.3971905" width="4.21351495" height="4.22442662"></rect>
                                <rect id="Rectangle-129" fill="#DCDCDC" mask="url(#mask-2)" x="51.2644319" y="37.3157685" width="113.764904" height="7.04071103"></rect>
                                <g id="Menü-links" mask="url(#mask-2)">
                                    <g transform="translate(3.511262, 46.468693)">
                                        <path d="M1.75563123,48.2288706 L36.1660033,48.2288706" id="Line" stroke="#A4A4A4" stroke-width="1.71885554" stroke-linecap="square" fill="none"></path>
                                        <path d="M1.75563123,37.667804 L36.1660033,37.667804" id="Line" stroke="#A4A4A4" stroke-width="1.71885554" stroke-linecap="square" fill="none"></path>
                                        <path d="M1.75563123,26.4026664 L36.1660033,26.4026664" id="Line" stroke="#A4A4A4" stroke-width="1.71885554" stroke-linecap="square" fill="none"></path>
                                        <path d="M1.75563123,15.8415998 L36.1660033,15.8415998" id="Line" stroke="#A4A4A4" stroke-width="1.71885554" stroke-linecap="square" fill="none"></path>
                                        <rect id="Rectangle-121" stroke="none" fill="#A4A4A4" fill-rule="evenodd" x="0" y="0" width="37.2193821" height="8.44885324"></rect>
                                    </g>
                                </g>
                                <g id="Icon-E-Mail-Center" mask="url(#mask-2)">
                                    <g transform="translate(4.915767, 21.826204)">
                                        <path d="M19.6630698,18.2354416 C19.6630698,19.0568579 19.0076341,19.7139909 18.1883395,19.7139909 L1.47473023,19.7139909 C0.655435659,19.7139909 0,19.0568579 0,18.2354416 L0,1.47854932 C0,0.65713303 0.655435659,0 1.47473023,0 L18.1883395,0 C19.0076341,0 19.6630698,0.65713303 19.6630698,1.47854932 L19.6630698,18.2354416 L19.6630698,18.2354416 Z" id="Shape" fill="#E20074"></path>
                                        <path d="M9.96262202,9.33128902 L16.3203479,4.92849772 L3.34272186,4.92849772 L9.70044776,9.33128902 C9.76599132,9.39700232 9.89707845,9.39700232 9.96262202,9.33128902 L9.96262202,9.33128902 Z" id="Shape" fill="#FEF4F9"></path>
                                        <path d="M10.2575681,9.75842549 C10.1264809,9.85699545 9.9953938,9.8898521 9.83153489,9.8898521 C9.70044776,9.8898521 9.53658884,9.85699545 9.40550171,9.75842549 L2.94946047,5.25706424 L2.94946047,14.2926434 C2.94946047,14.5554966 3.17886295,14.7854932 3.44103721,14.7854932 L16.2220326,14.7854932 C16.4842068,14.7854932 16.7136093,14.5554966 16.7136093,14.2926434 L16.7136093,5.25706424 L10.2575681,9.75842549 L10.2575681,9.75842549 Z" id="Shape" fill="#FEF4F9"></path>
                                        <g id="Group" opacity="0.3" stroke-width="1" fill="none" transform="translate(2.949460, 5.257064)">
                                            <path d="M7.3081076,4.50136125 C7.17702047,4.59993121 7.04593334,4.63278786 6.88207442,4.63278786 C6.75098729,4.63278786 6.58712838,4.59993121 6.45604124,4.50136125 L0,0 L0,0.0985699545 L6.48881303,5.22420759 C6.58712838,5.28992089 6.75098729,5.35563419 6.88207442,5.35563419 C7.01316155,5.35563419 7.17702047,5.32277754 7.27533582,5.22420759 L13.7641488,0.0985699545 L13.7641488,0 L7.3081076,4.50136125 L7.3081076,4.50136125 Z" id="Shape" fill="#E20074"></path>
                                        </g>
                                    </g>
                                </g>
                                <rect id="Rectangle-120" fill="#DCDCDC" mask="url(#mask-2)" x="-0.702252492" y="0.704071103" width="174.158618" height="16.1936354"></rect>
                                <path d="M4.66837336,10.6531571 L6.77750684,10.6531571 L6.77750684,8.5388521 L4.66837336,8.5388521 L4.66837336,10.6531571 Z M4.66721434,7.2324452 L5.1337214,7.3291838 C5.23803354,6.23165095 5.52663045,5.41707124 5.99922239,4.88515418 C6.49673333,4.32883459 7.21387928,4.02525549 8.09444757,4.00056245 L8.09444757,11.5400728 C8.09444757,12.2201481 8.00839006,12.9472854 7.80874822,13.1506398 C7.63953075,13.3243626 7.35325188,13.4312689 6.94962186,13.4707778 C6.83024242,13.4809455 6.54425331,13.5387563 6.25507688,13.5387563 L6.25507688,14.0814221 L11.5144369,14.0814221 L11.5144369,13.5387563 C11.2252605,13.5387563 10.9392714,13.4809455 10.8196022,13.4707778 C10.4162619,13.4312689 10.129983,13.3243626 9.96076557,13.1506398 C9.76112373,12.9472854 9.67506622,12.2201481 9.67506622,11.5400728 L9.67506622,4.00056245 C10.5553448,4.02525549 11.2643775,4.32883459 11.7621782,4.88515418 C12.2344804,5.41707124 12.5233671,6.23165095 12.6273895,7.3291838 L13.0941863,7.2324452 L13.0953453,3.52035552 L4.66576556,3.52035552 L4.66721434,7.2324452 Z M10.9873709,10.6531571 L13.0965043,10.6531571 L13.0965043,8.5388521 L10.9873709,8.5388521 L10.9873709,10.6531571 Z M17.3063684,10.6531571 L19.4155018,10.6531571 L19.4155018,8.5388521 L17.3063684,8.5388521 L17.3063684,10.6531571 Z M23.6253659,10.6453134 L25.7344993,10.6453134 L25.7344993,8.53071792 L23.6253659,8.53071792 L23.6253659,10.6453134 Z" id="Markenlabel" fill="#E20074" mask="url(#mask-2)"></path>
                                <text id="E-Mail-Center" mask="url(#mask-2)" font-family="TeleGroteskScreen-Ultra, TeleGroteskScreen" font-size="12.6502876" font-weight="600" letter-spacing="0.208245965" fill="#4B4B4B">
                                    <tspan x="50.5621794" y="31.418062">E-Mail Center</tspan>
                                </text>
                            </g>
                        </g>
                        <g id="Tablet" transform="translate(0.000000, 75.221914)">
                            <path d="M0.236982581,4.89980874 C0.236982581,2.20892338 2.48270881,0.00728990011 5.22748531,0.00728990011 L122.504299,0.00728990011 C125.249076,0.00728990011 127.494802,2.20892338 127.494802,4.89980874 L127.494802,83.1801103 C127.494802,85.8709956 125.249076,88.0726291 122.504299,88.0726291 L5.22748531,88.0726291 C2.48270881,88.0726291 0.236982581,85.8709956 0.236982581,83.1801103 L0.236982581,4.89980874 L0.236982581,4.89980874 L0.236982581,4.89980874 Z" id="Shape" fill="#4B4B4B"></path>
                            <mask id="mask-4" fill="white">
                                <use xlink:href="#path-3"></use>
                            </mask>
                            <use id="Screen" fill="#FFFFFF" xlink:href="#path-3"></use>
                            <path d="M67.8803129,61.3083378 L51.5406239,61.3083378 L51.5406239,72.3432421 C51.5406239,72.6713069 51.8129521,72.9397235 52.1457976,72.9397235 L67.8803129,72.9397235 C68.2131585,72.9397235 68.4854866,72.6713069 68.4854866,72.3432421 L68.4854866,61.9048191 C68.4854866,61.5767544 68.2131585,61.3083378 67.8803129,61.3083378 Z M58.5001211,60.0068487 L56.9871869,58.5156454 L52.1457976,58.5156454 C51.8129521,58.5156454 51.5406239,58.784062 51.5406239,59.1121268 L51.5406239,60.0068487 L58.5001211,60.0068487 Z" id="Icon-Folder" fill="#53BAF2" mask="url(#mask-4)"></path>
                            <path d="M76.9579179,45.1204977 L98.1389963,45.1204977" id="Line" stroke="#A4A4A4" stroke-width="3.43771109" stroke-linecap="square" mask="url(#mask-4)"></path>
                            <path d="M76.9579179,65.5657232 L101.669176,65.5657232" id="Line" stroke="#A4A4A4" stroke-width="3.43771109" stroke-linecap="square" mask="url(#mask-4)"></path>
                            <path d="M67.8803129,40.1581045 L51.5406239,40.1581045 L51.5406239,51.1930089 C51.5406239,51.5210736 51.8129521,51.7894902 52.1457976,51.7894902 L67.8803129,51.7894902 C68.2131585,51.7894902 68.4854866,51.5210736 68.4854866,51.1930089 L68.4854866,40.7545858 C68.4854866,40.4265211 68.2131585,40.1581045 67.8803129,40.1581045 Z M58.5001211,38.8566154 L56.9871869,37.3654121 L52.1457976,37.3654121 C51.8129521,37.3654121 51.5406239,37.6338287 51.5406239,37.9618935 L51.5406239,38.8566154 L58.5001211,38.8566154 Z" id="Icon-Folder" fill="#53BAF2" mask="url(#mask-4)"></path>
                            <rect id="Rectangle-129" fill="#DCDCDC" mask="url(#mask-4)" x="43.0681926" y="26.0852877" width="72.7217023" height="6.34506999"></rect>
                            <text id="MagentaCloud" mask="url(#mask-4)" font-family="TeleGroteskScreen-Ultra, TeleGroteskScreen" font-size="11.2361424" font-weight="600" letter-spacing="0.185107527" fill="#4B4B4B">
                                <tspan x="43.7742286" y="20.5751166">MagentaCloud</tspan>
                            </text>
                            <g id="Menü-links" mask="url(#mask-4)">
                                <g transform="translate(12.002611, 43.005474)">
                                    <path d="M0.282414378,26.4377916 L27.9590234,26.4377916" id="Line" stroke="#A4A4A4" stroke-width="1.71885554" stroke-linecap="square" fill="none"></path>
                                    <path d="M0.282414378,15.862675 L27.9590234,15.862675" id="Line" stroke="#A4A4A4" stroke-width="1.71885554" stroke-linecap="square" fill="none"></path>
                                    <rect id="Rectangle-121" stroke="none" fill="#A4A4A4" fill-rule="evenodd" x="0" y="0" width="28.2414378" height="8.46009332"></rect>
                                </g>
                            </g>
                            <g id="Icon-Magenta-Cloud" mask="url(#mask-4)">
                                <g transform="translate(12.604961, 23.970264)">
                                    <rect id="Rectangle-path" x="0.903860113" y="0.0980994275" width="21.0869402" height="20.9278779"></rect>
                                    <g id="Group" stroke-width="1" fill-rule="evenodd" transform="translate(0.056617, 1.667952)">
                                        <path d="M15.1415946,4.06930958 C14.6729959,1.77305632 12.6521641,0.116265988 10.2505959,0.116265988 C8.61050058,0.116265988 7.0875549,0.901061408 6.15035756,2.20905377 C5.85748339,2.09278779 5.5353218,2.06372129 5.21316022,2.06372129 C3.77807679,2.06372129 2.60658011,3.11011518 2.40156819,4.44717405 C1.02505959,4.73783902 0,5.92956539 0,7.35382375 C0,8.98154758 1.34722118,10.3186064 2.98731653,10.3186064 C3.19232845,10.3186064 3.39734037,10.2895399 3.60235229,10.2604735 C4.6566993,11.2196679 6.03320789,11.7428648 7.46829132,11.7428648 C8.49335092,11.7428648 9.51841051,11.4812663 10.397033,10.9580694 C10.8070569,11.1615349 11.2756555,11.2487344 11.7149668,11.2487344 C12.5643019,11.2487344 13.3843495,10.8999364 13.9700979,10.3186064 C14.0872476,10.3186064 14.2043972,10.3476729 14.3215469,10.3476729 C16.1080793,10.3476729 17.5431628,8.92341459 17.5431628,7.17942477 C17.5724502,5.66796692 16.5473906,4.41810755 15.1415946,4.06930958 L15.1415946,4.06930958 Z" id="Shape" fill="#E20074"></path>
                                        <path d="M15.2001694,4.38904105 C15.6101932,7.61542222 12.857176,10.3476729 9.60627276,9.94074198 C7.38042907,9.65007701 5.59389664,7.8770207 5.30102247,5.66796692 C4.89099863,2.44158575 7.64401583,-0.29066497 10.8949191,0.116265988 C13.1207628,0.406930958 14.9072952,2.17998728 15.2001694,4.38904105 L15.2001694,4.38904105 Z" id="Shape" fill="#E20074" opacity="0.3"></path>
                                        <path d="M5.91605822,6.8306268 C6.23821981,8.86528159 4.51026221,10.5802049 2.48943044,10.231407 C1.25935893,10.0279415 0.263586753,9.03968058 0.0585748339,7.8188877 C-0.29287417,5.81329941 1.43508343,4.09837608 3.48520262,4.41810755 C4.71527413,4.62157303 5.71104631,5.60983393 5.91605822,6.8306268 L5.91605822,6.8306268 Z" id="Shape" fill="#E20074" opacity="0.6"></path>
                                        <path d="M8.05403966,4.38904105 C8.37620125,6.33649635 6.70681848,7.99328668 4.74456155,7.67355522 C3.54377745,7.47008974 2.60658011,6.53996183 2.40156819,5.34823545 C2.0794066,3.40078015 3.74878937,1.74398982 5.71104631,2.06372129 C6.88254298,2.26718677 7.84902774,3.22638117 8.05403966,4.38904105 L8.05403966,4.38904105 Z" id="Shape" fill="#E20074" opacity="0.5"></path>
                                        <path d="M14.7901456,7.70262171 C15.1415946,9.766343 13.3550621,11.5393993 11.2756555,11.1906014 C10.0162966,10.9871359 8.99123701,9.96980848 8.78622509,8.71994911 C8.43477608,6.65622782 10.2213085,4.8831715 12.3007151,5.23196947 C13.560074,5.43543494 14.5558462,6.45276234 14.7901456,7.70262171 L14.7901456,7.70262171 Z" id="Shape" fill="#E20074" opacity="0.5"></path>
                                        <path d="M17.5138753,6.59809483 C17.8653243,8.7780821 16.0202171,10.6092714 13.8236608,10.2604735 C12.505727,10.057008 11.4220926,8.98154758 11.2170807,7.67355522 C10.8656317,5.49356794 12.710739,3.66237863 14.9072952,4.01117659 C16.225229,4.21464207 17.3088634,5.29010246 17.5138753,6.59809483 L17.5138753,6.59809483 Z" id="Shape" fill="#E20074" opacity="0.3"></path>
                                        <polygon id="Shape" fill="#CC0069" opacity="0.8" points="9.34268601 4.67970602 5.82819597 8.16768567 12.857176 8.16768567"></polygon>
                                        <path d="M12.857176,7.44102324 L9.34268601,3.9530436 L5.82819597,7.44102324 L8.17118933,7.44102324 L8.17118933,11.6847318 C8.96194959,11.5975323 9.72342243,11.3359338 10.397033,10.9290029 C10.4263204,10.9580694 10.4556079,10.9580694 10.5141827,10.9580694 L10.5141827,7.44102324 L12.857176,7.44102324 L12.857176,7.44102324 Z" id="Shape" fill="#FFFFFF"></path>
                                    </g>
                                </g>
                            </g>
                            <path d="M11.299197,17.0123996 L13.4196936,17.0123996 L13.4196936,14.8952819 L11.299197,14.8952819 L11.299197,17.0123996 Z M11.2980317,13.587137 L11.7670521,13.6840043 C11.8719262,12.5850113 12.162078,11.7693479 12.6372161,11.2367232 C13.1374074,10.6796635 13.858417,10.3756805 14.7437295,10.3509547 L14.7437295,17.9004953 C14.7437295,18.5814754 14.6572083,19.30958 14.4564909,19.513205 C14.2863617,19.6871589 13.9985405,19.7942074 13.5927359,19.8337689 C13.4727133,19.8439501 13.1851834,19.9018378 12.894449,19.9018378 L12.894449,20.4452255 L18.1821443,20.4452255 L18.1821443,19.9018378 C17.8914099,19.9018378 17.60388,19.8439501 17.4835661,19.8337689 C17.0780528,19.7942074 16.7902316,19.6871589 16.6201024,19.513205 C16.419385,19.30958 16.3328639,18.5814754 16.3328639,17.9004953 L16.3328639,10.3509547 C17.217885,10.3756805 17.9307377,10.6796635 18.4312204,11.2367232 C18.9060671,11.7693479 19.1965102,12.5850113 19.301093,13.6840043 L19.7704048,13.587137 L19.77157,9.87010887 L11.2965751,9.87010887 L11.2980317,13.587137 Z M17.6522387,17.0123996 L19.7727353,17.0123996 L19.7727353,14.8952819 L17.6522387,14.8952819 L17.6522387,17.0123996 Z M24.0052804,17.0123996 L26.125777,17.0123996 L26.125777,14.8952819 L24.0052804,14.8952819 L24.0052804,17.0123996 Z M30.3583221,17.0045455 L32.4788187,17.0045455 L32.4788187,14.8871369 L30.3583221,14.8871369 L30.3583221,17.0045455 Z" id="Markenlabel" fill="#E20074" mask="url(#mask-4)"></path>
                        </g>
                        <g id="Handy" transform="translate(226.260361, 58.603119)">
                            <path d="M6.00812255,107.385996 C9.76319914,108.669216 18.775383,110.97901 29.2895974,110.97901 C36.7997506,110.97901 45.561596,109.695791 52.5710723,107.385996 C58.078518,105.58949 58.078518,99.6866818 58.078518,99.6866818 L58.078518,12.4277826 C58.078518,12.4277826 58.078518,6.01168708 52.5710723,3.95853651 C45.3112576,1.64874212 36.2990737,0.365523018 29.2895974,0.365523018 C21.7794442,0.365523018 13.0175989,1.64874212 6.00812255,3.95853651 C0.500676879,5.75504326 0.500676879,12.4277826 0.500676879,12.4277826 L0.500676879,99.6866818 C0.500676879,99.6866818 0.500676879,105.332846 6.00812255,107.385996 L6.00812255,107.385996 Z" id="Shape" fill="#4B4B4B"></path>
                            <rect id="Rectangle-path" fill="#FFFFFF" x="6.00812255" y="12.9410702" width="46.8132882" height="81.0994475"></rect>
                            <path d="M34.7970431,8.83476911 C34.7970431,9.09141293 34.5467047,9.34805675 34.2963662,9.34805675 L24.2828286,9.34805675 C24.0324902,9.34805675 23.7821518,9.09141293 23.7821518,8.83476911 L23.7821518,6.01168708 C23.7821518,5.75504326 24.0324902,5.49839944 24.2828286,5.49839944 L34.2963662,5.49839944 C34.5467047,5.49839944 34.7970431,5.75504326 34.7970431,6.01168708 L34.7970431,8.83476911 L34.7970431,8.83476911 Z" id="Shape" fill="#262626"></path>
                            <path d="M32.7943356,103.536339 C32.7943356,104.562914 32.0433203,105.332846 31.0419665,105.332846 L27.5372284,105.332846 C26.5358746,105.332846 25.7848593,104.562914 25.7848593,103.536339 L25.7848593,99.9433256 C25.7848593,98.9167503 26.5358746,98.1468188 27.5372284,98.1468188 L31.0419665,98.1468188 C32.0433203,98.1468188 32.7943356,98.9167503 32.7943356,99.9433256 L32.7943356,103.536339 L32.7943356,103.536339 Z" id="Shape" fill="#262626"></path>
                            <rect id="Rectangle-129" fill="#DCDCDC" x="9.79550115" y="68.7516904" width="18.4039007" height="17.6790061"></rect>
                            <rect id="Rectangle-129" fill="#DCDCDC" x="31.2164348" y="68.7516904" width="18.4039007" height="17.6790061"></rect>
                            <rect id="Rectangle-129" fill="#DCDCDC" x="9.79550115" y="48.4535723" width="18.4039007" height="17.6790061"></rect>
                            <rect id="Rectangle-129" fill="#DCDCDC" x="31.2164348" y="48.4535723" width="18.4039007" height="17.6790061"></rect>
                            <text id="Telefonie" font-family="TeleGroteskScreen-Ultra, TeleGroteskScreen" font-size="7.83054872" font-weight="600" letter-spacing="0.131120932" fill="#4B4B4B">
                                <tspan x="21.5501025" y="33.4532606">Telefonie</tspan>
                                <tspan x="21.5501025" y="41.4532606">Center</tspan>
                            </text>
                            <g id="Icon-Telefoniecenter" transform="translate(7.836401, 30.774566)">
                                <path d="M11.7546014,10.9020538 C11.7546014,11.3931373 11.3627813,11.7860041 10.8730063,11.7860041 L0.881595104,11.7860041 C0.391820046,11.7860041 0,11.3931373 0,10.9020538 L0,0.883950305 C0,0.392866802 0.391820046,0 0.881595104,0 L10.8730063,0 C11.3627813,0 11.7546014,0.392866802 11.7546014,0.883950305 L11.7546014,10.9020538 L11.7546014,10.9020538 Z" id="Shape" fill="#E20074"></path>
                                <polygon id="Shape" fill="#FEF4F9" points="9.24695309 5.83407201 5.87730069 2.43577417"></polygon>
                                <polygon id="Shape" fill="#FAD9EB" points="9.79550115 6.38408553 5.87730069 2.43577417 1.95910023 6.38408553 1.46932517 5.89300203 5.87730069 1.47325051 10.2852762 5.89300203"></polygon>
                                <g id="Group" transform="translate(2.350920, 2.357201)" fill="#FEF4F9">
                                    <ellipse id="Oval" cx="4.34920251" cy="3.6733046" rx="0.528957062" ry="0.530370183"></ellipse>
                                    <path d="M3.52638042,0.0785733604 L0.137137016,3.4768712 L0.137137016,7.07160244 C0.137137016,7.22874916 0.274274032,7.36625254 0.431002051,7.36625254 L6.60216778,7.36625254 C6.7588958,7.36625254 6.89603281,7.22874916 6.89603281,7.07160244 L6.89603281,3.4768712 L3.52638042,0.0785733604 L3.52638042,0.0785733604 Z M4.83897757,6.48230223 L4.60388554,6.71802232 C4.60388554,6.71802232 4.58429454,6.73766566 4.56470354,6.73766566 C4.48633953,6.79659568 4.40797552,6.81623902 4.31002051,6.81623902 C4.03574647,6.87516904 3.23251538,6.32515551 2.42928429,5.51977857 C1.62605319,4.71440162 1.09709613,3.92866802 1.13627813,3.63401792 C1.13627813,3.53580122 1.17546014,3.45722786 1.21464214,3.3786545 C1.21464214,3.35901116 1.23423315,3.35901116 1.23423315,3.33936782 L1.46932517,3.10364774 C1.52809818,3.04471772 1.64564419,3.04471772 1.7044172,3.10364774 L2.5468303,3.94831136 C2.60560331,4.00724138 2.60560331,4.12510142 2.5468303,4.18403144 L2.31173827,4.41975152 L2.5860123,4.73404496 C2.74274032,4.91083503 2.99742335,5.18584179 3.17374237,5.32334517 L3.48719841,5.59835193 L3.72229044,5.36263185 C3.78106344,5.30370183 3.89860946,5.30370183 3.95738247,5.36263185 L4.79979556,6.20729547 C4.91734158,6.32515551 4.91734158,6.42337221 4.83897757,6.48230223 L4.83897757,6.48230223 Z M5.23079762,3.6733046 C5.23079762,3.73223462 5.23079762,3.7715213 5.21120661,3.83045132 L5.50507165,4.08581474 C5.44629864,4.24296146 5.36793463,4.38046484 5.26997962,4.49832488 L4.89775058,4.3608215 C4.81938657,4.41975152 4.72143156,4.47868154 4.62347654,4.51796822 L4.56470354,4.91083503 C4.50593053,4.91083503 4.42756652,4.91083503 4.34920251,4.91083503 C4.2708385,4.91083503 4.19247449,4.91083503 4.11411048,4.89119169 L4.05533748,4.49832488 C3.95738247,4.4590382 3.85942745,4.40010818 3.78106344,4.34117816 L3.4088344,4.47868154 C3.31087939,4.3608215 3.23251538,4.22331812 3.17374237,4.0661714 L3.46760741,3.81080798 C3.46760741,3.75187796 3.44801641,3.71259128 3.44801641,3.65366126 C3.44801641,3.59473124 3.44801641,3.55544456 3.46760741,3.49651454 L3.17374237,3.24115112 C3.23251538,3.0840044 3.31087939,2.94650102 3.4088344,2.82864097 L3.78106344,2.96614436 C3.85942745,2.90721434 3.95738247,2.84828431 4.05533748,2.80899763 L4.11411048,2.41613083 C4.19247449,2.39648749 4.2708385,2.39648749 4.34920251,2.39648749 C4.42756652,2.39648749 4.50593053,2.39648749 4.58429454,2.41613083 L4.64306755,2.80899763 C4.74102256,2.84828431 4.83897757,2.90721434 4.91734158,2.96614436 L5.28957062,2.82864097 C5.38752563,2.94650102 5.46588964,3.0840044 5.52466265,3.24115112 L5.23079762,3.49651454 L5.23079762,3.6733046 L5.23079762,3.6733046 Z" id="Shape"></path>
                                </g>
                                <polygon id="Shape" fill="#F39ECA" points="5.87730069 2.43577417 2.48805729 5.83407201 2.48805729 5.97157539 5.87730069 2.96614436 9.26654409 5.95193205 9.26654409 5.85371535"></polygon>
                            </g>
                            <path d="M9.79744118,21.6761886 L11.3664889,21.6761886 L11.3664889,20.1031652 L9.79744118,20.1031652 L9.79744118,21.6761886 Z M9.79657894,19.1312106 L10.1436276,19.2031832 C10.2212285,18.3866289 10.4359244,17.7805891 10.7874998,17.3848477 C11.1576131,16.9709511 11.6911195,16.745091 12.3462007,16.7267196 L12.3462007,22.3360457 C12.3462007,22.8420155 12.28218,23.3829989 12.1336604,23.5342927 C12.0077744,23.6635409 11.794803,23.7430782 11.4945305,23.7724724 C11.4057205,23.7800371 11.1929646,23.8230478 10.9778376,23.8230478 L10.9778376,24.2267861 L14.8904335,24.2267861 L14.8904335,23.8230478 C14.6753065,23.8230478 14.4625506,23.7800371 14.3735251,23.7724724 C14.0734682,23.7430782 13.8604967,23.6635409 13.7346108,23.5342927 C13.5860912,23.3829989 13.5220704,22.8420155 13.5220704,22.3360457 L13.5220704,16.7267196 C14.1769361,16.745091 14.7044069,16.9709511 15.0747358,17.3848477 C15.4260955,17.7805891 15.641007,18.3866289 15.7183924,19.2031832 L16.0656566,19.1312106 L16.0665188,16.3694501 L9.79550115,16.3694501 L9.79657894,19.1312106 Z M14.4983333,21.6761886 L16.067381,21.6761886 L16.067381,20.1031652 L14.4983333,20.1031652 L14.4983333,21.6761886 Z M19.1992254,21.6761886 L20.7682731,21.6761886 L20.7682731,20.1031652 L19.1992254,20.1031652 L19.1992254,21.6761886 Z M23.9001175,21.670353 L25.4691652,21.670353 L25.4691652,20.0971135 L23.9001175,20.0971135 L23.9001175,21.670353 Z" id="Markenlabel" fill="#E20074"></path>
                        </g>
                    </g>
                </g>
            </g>
        </g>
    </g>
</svg>